<?xml version="1.0" encoding="UTF-8" standalone="no"?>
<!DOCTYPE svg PUBLIC "-//W3C//DTD SVG 1.1//EN" "http://www.w3.org/Graphics/SVG/1.1/DTD/svg11.dtd">
<svg width="100%" height="100%" viewBox="0 0 3674 2014" version="1.1" xmlns="http://www.w3.org/2000/svg" xmlns:xlink="http://www.w3.org/1999/xlink" xml:space="preserve" xmlns:serif="http://www.serif.com/" style="fill-rule:evenodd;clip-rule:evenodd;stroke-linejoin:round;stroke-miterlimit:2;">
    <g id="Layer-1" serif:id="Layer 1" transform="matrix(4.16667,0,0,4.16667,0,0)">
        <g transform="matrix(0.812056,0,0,1,8.57788,0)">
            <text x="45.641px" y="250.998px" style="font-family:'HoboStd', 'Hobo Std';font-weight:500;font-size:209.511px;fill:rgb(223,131,38);">P<tspan x="174.958px 287.515px 349.37px 457.946px " y="250.998px 250.998px 250.998px 250.998px ">ojed</tspan></text>
        </g>
        <g transform="matrix(-1,0,0,1,893.88,180.833)">
            <rect x="56.44" y="56.68" width="781" height="189" style="fill:rgb(223,131,38);"/>
        </g>
        <g>
            <g transform="matrix(0.812056,0,0,1,19.8538,0)">
                <text x="105.637px" y="374.599px" style="font-family:'HoboStd', 'Hobo Std';font-weight:500;font-size:104.755px;fill:white;">c<tspan x="154.018px 206.276px 257.696px 292.983px 347.231px 398.546px 453.632px " y="374.599px 374.599px 374.599px 374.599px 374.599px 374.599px 374.599px ">estovní</tspan></text>
            </g>
            <g transform="matrix(0.812056,0,0,1,80.7829,0)">
                <text x="429.825px" y="374.599px" style="font-family:'HoboStd', 'Hobo Std';font-weight:500;font-size:104.755px;fill:white;">a<tspan x="481.559px 537.064px 589.321px 644.407px 679.695px 735.2px 777.087px " y="374.599px 374.599px 374.599px 374.599px 374.599px 374.599px 374.599px ">gentura</tspan></text>
            </g>
        </g>
        <g transform="matrix(1,0,0,1,483.122,65.8876)">
            <path d="M0,18.176C1.611,24.123 1.918,26.149 6.461,27.42C9.937,28.403 10.711,27.383 14.343,24.16L30.269,9.71C31.52,8.648 33.702,6.785 34.305,4.834C35.099,2.235 30.342,-2.473 29.388,-2.739C27.708,-3.209 25.055,-0.601 23.346,0.87L17.44,6.282C16.437,7.237 13.764,9.672 12.698,9.369C11.748,9.104 10.955,5.695 10.677,4.731L7.279,-6.651C6.962,-7.443 6.666,-9.124 5.716,-9.394C2.756,-10.227 -6.232,-6.744 -6.48,-5.929C-6.879,-4.62 -6.446,-3.442 -6.062,-2.441L0,18.176Z" style="fill:rgb(223,131,38);fill-rule:nonzero;"/>
        </g>
    </g>
</svg>
